<svg xmlns="http://www.w3.org/2000/svg" version="1.1" xmlns:xlink="http://www.w3.org/1999/xlink" xmlns:svgjs="http://svgjs.dev/svgjs" width="1000" height="623" viewBox="0 0 1000 623"><g transform="matrix(1,0,0,1,-0.6060606060606233,0.2522267206477409)"><svg viewBox="0 0 396 247" data-background-color="#ffffff" preserveAspectRatio="xMidYMid meet" height="623" width="1000" xmlns="http://www.w3.org/2000/svg" xmlns:xlink="http://www.w3.org/1999/xlink"><g id="tight-bounds" transform="matrix(1,0,0,1,0.2400000000000091,-0.09999999999999432)"><svg viewBox="0 0 395.52 247.2" height="247.2" width="395.52"><g><svg></svg></g><g><svg viewBox="0 0 395.52 247.2" height="247.2" width="395.52"><g transform="matrix(1,0,0,1,75.54432,53.71126803519061)"><svg viewBox="0 0 244.43135999999998 139.77746392961876" height="139.77746392961876" width="244.43135999999998"><g><svg viewBox="0 0 244.43135999999998 139.77746392961876" height="139.77746392961876" width="244.43135999999998"><g><svg viewBox="0 0 244.43135999999998 139.77746392961876" height="139.77746392961876" width="244.43135999999998"><g><svg viewBox="0 0 244.43135999999998 139.77746392961876" height="139.77746392961876" width="244.43135999999998"><g><svg viewBox="0 0 244.43135999999998 139.77746392961876" height="139.77746392961876" width="244.43135999999998"><g transform="matrix(1,0,0,1,0,0)"><svg width="244.43135999999998" viewBox="2.649999999999998 -35.5 68.2 36" height="139.77746392961876" data-palette-color="#50a060"><svg></svg><g class="undefined-text-0" data-fill-palette-color="primary" id="text-0"><path d="M17.4 0.5v0c-3.1 0-5.723-0.543-7.87-1.63-2.153-1.08-3.797-2.63-4.93-4.65-1.133-2.013-1.767-4.437-1.9-7.27v0c-0.033-1.367-0.05-2.833-0.05-4.4 0-1.567 0.017-3.067 0.05-4.5v0c0.133-2.8 0.777-5.217 1.93-7.25 1.147-2.033 2.797-3.593 4.95-4.68 2.147-1.08 4.753-1.62 7.82-1.62v0c2.267 0 4.3 0.3 6.1 0.9 1.8 0.6 3.333 1.423 4.6 2.47 1.267 1.053 2.25 2.28 2.95 3.68 0.7 1.4 1.067 2.917 1.1 4.55v0c0.033 0.3-0.057 0.55-0.27 0.75-0.22 0.2-0.48 0.3-0.78 0.3v0h-4.75c-0.367 0-0.667-0.093-0.9-0.28-0.233-0.18-0.4-0.487-0.5-0.92v0c-0.533-2.2-1.45-3.7-2.75-4.5-1.3-0.8-2.917-1.2-4.85-1.2v0c-2.233 0-4.017 0.623-5.35 1.87-1.333 1.253-2.05 3.313-2.15 6.18v0c-0.1 2.733-0.1 5.533 0 8.4v0c0.1 2.867 0.817 4.923 2.15 6.17 1.333 1.253 3.117 1.88 5.35 1.88v0c1.933 0 3.56-0.41 4.88-1.23 1.313-0.813 2.22-2.303 2.72-4.47v0c0.1-0.467 0.267-0.783 0.5-0.95 0.233-0.167 0.533-0.25 0.9-0.25v0h4.75c0.3 0 0.56 0.1 0.78 0.3 0.213 0.2 0.303 0.45 0.27 0.75v0c-0.033 1.633-0.4 3.15-1.1 4.55-0.7 1.4-1.683 2.623-2.95 3.67-1.267 1.053-2.8 1.88-4.6 2.48-1.8 0.6-3.833 0.9-6.1 0.9zM43.55 0h-4.2c-0.367 0-0.667-0.117-0.9-0.35-0.233-0.233-0.35-0.517-0.35-0.85v0-32.55c0-0.367 0.117-0.667 0.35-0.9 0.233-0.233 0.533-0.35 0.9-0.35v0h3.95c0.467 0 0.817 0.123 1.05 0.37 0.233 0.253 0.383 0.447 0.45 0.58v0l9.65 18 9.75-18c0.067-0.133 0.217-0.327 0.45-0.58 0.233-0.247 0.583-0.37 1.05-0.37v0h3.9c0.367 0 0.667 0.117 0.9 0.35 0.233 0.233 0.35 0.533 0.35 0.9v0 32.55c0 0.333-0.117 0.617-0.35 0.85-0.233 0.233-0.533 0.35-0.9 0.35v0h-4.2c-0.367 0-0.657-0.117-0.87-0.35-0.22-0.233-0.33-0.517-0.33-0.85v0-21.65l-7 13.35c-0.167 0.3-0.383 0.56-0.65 0.78-0.267 0.213-0.617 0.32-1.05 0.32v0h-2.05c-0.467 0-0.823-0.107-1.07-0.32-0.253-0.22-0.463-0.48-0.63-0.78v0l-7-13.35v21.65c0 0.333-0.117 0.617-0.35 0.85-0.233 0.233-0.517 0.35-0.85 0.35z" fill="#50a060" fill-rule="nonzero" stroke="none" stroke-width="1" stroke-linecap="butt" stroke-linejoin="miter" stroke-miterlimit="10" stroke-dasharray="" stroke-dashoffset="0" font-family="none" font-weight="none" font-size="none" text-anchor="none" style="mix-blend-mode: normal" data-fill-palette-color="primary" opacity="1"></path></g></svg></g></svg></g></svg></g></svg></g></svg></g></svg></g><g><path d="M0 123.6c0-68.262 55.338-123.6 123.6-123.6 35.276 0 67.101 14.778 89.621 38.481l-8.212 0c-21.15-20.234-49.828-32.664-81.409-32.663-65.049 0-117.782 52.733-117.782 117.782 0 65.049 52.733 117.782 117.782 117.782 31.581 0 60.259-12.43 81.409-32.663l8.212 0c-22.52 23.703-54.344 38.481-89.621 38.481-68.262 0-123.6-55.338-123.6-123.6z" fill="#50a060" stroke="transparent" data-fill-palette-color="tertiary"></path></g></svg></g><defs></defs></svg><rect width="395.52" height="247.2" fill="none" stroke="none" visibility="hidden"></rect></g></svg></g></svg>